<svg xmlns="http://www.w3.org/2000/svg" aria-hidden="true" style="position:absolute;width:0;height:0;overflow:hidden"><defs><symbol id="icon-close-button" viewBox="0 0 32 32"><path d="m26.667 7.303-1.97-1.97-7.808 7.808-7.808-7.808-1.97 1.97 7.808 7.808-7.808 7.808 1.97 1.97 7.808-7.808 7.808 7.808 1.97-1.97-7.808-7.808 7.808-7.808z"/></symbol><symbol id="icon-spinner7" viewBox="0 0 32 32"><path d="M13 29a3 3 0 1 1 6 0 3 3 0 0 1-6 0zM0 16a3 3 0 1 1 6 0 3 3 0 0 1-6 0zm26 0a3 3 0 1 1 6 0 3 3 0 0 1-6 0zM3.808 6.808a3 3 0 1 1 6 0 3 3 0 0 1-6 0zm18.384 18.384a3 3 0 1 1 6 0 3 3 0 0 1-6 0zm-18.384 0a3 3 0 1 1 6 0 3 3 0 0 1-6 0zM22.192 6.808a3 3 0 1 1 6 0 3 3 0 0 1-6 0z"/></symbol></defs></svg>